<?xml version="1.0" encoding="UTF-8"?>
<svg id="icon-0" xmlns="http://www.w3.org/2000/svg" viewBox="0 0 1497.99118 152.3939">
  <defs>
    <style>
      .cls-1 {
        fill: #0074d9;
      }
    </style>
  </defs>
  <g id="tight-bounds">
    <g>
      <path id="qz-0" class="cls-1" d="M283.38794,0h.00002c3.77615,0,6.83732,6.70692,6.83732,14.98032v122.43326c0,8.2734-3.06117,14.98032-6.83732,14.98032h-.00002c-3.77615,0-6.83732-6.70692-6.83732-14.98032V14.98032c0-8.2734,3.06117-14.98032,6.83732-14.98032Z"/>
      <g id="textblocktransform">
        <path id="text-0" class="cls-1" d="M389.00678,12.43638l-21.25353,4.29157v119.75543h53.54254l6.94826-35.35442h13.28345v48.63787h-115.46386v-9.80932l19.20992-4.29158V16.72796l-19.20992-4.29157V2.62706h62.94313V12.43638Zm156.33602,34.74133v53.95126h-12.46601l-3.6785-20.23172h-31.88028v55.58614h59.87771l6.13082-32.28901h13.89654v45.57246h-121.59469v-9.80932l19.20992-4.29158V16.72796l-19.20992-4.29157V2.62706h117.09875V45.95155h-12.67038l-6.33518-30.44976h-56.40358v52.112h31.88028l3.6785-20.43608h12.46601Zm133.4476,92.77981l16.75758-4.29158-11.44419-34.74134h-53.13381l-11.85293,34.74134,16.96195,4.29158v9.80932h-49.86406v-9.80932l16.75761-4.29158L651.61042,.58345h21.04917l48.02479,135.0825,16.34887,4.29158v9.80932h-58.24283v-9.80932Zm-20.02737-118.32491h-.81743l-22.47969,66.41727h44.34629l-21.04917-66.41727Zm189.60596,50.0684h0c-2.45229,1.90737-5.27248,3.61037-8.46054,5.10902-3.21528,1.49865-7.20714,2.72482-11.97555,3.67849h0c.9537,1.08993,2.17985,2.5477,3.6785,4.37332,1.49865,1.85287,2.92917,3.93735,4.29159,6.25344h0l26.56687,44.95938,18.18816,3.88285v9.80932h-44.14195v-9.80932l-28.61051-55.58614h-23.09278v51.29456l19.41428,4.29158v9.80932h-59.06029v-9.80932l17.16633-4.29158V16.72796l-17.16633-4.29157V2.62706h72.34375c6.53957,0,12.26165,.61307,17.1663,1.83925,4.90465,1.22616,9.33248,3.20165,13.28348,5.92647h0c4.90465,3.26977,8.78749,7.7657,11.64853,13.48781,2.86104,5.7221,4.29159,11.4442,4.29159,17.1663h0c0,5.72211-1.38964,11.33522-4.16898,16.83933-2.80653,5.53136-6.59402,10.13629-11.36246,13.81479Zm-63.55619-56.19922v55.99486h27.17999c7.49324,0,13.69217-2.11173,18.59682-6.33519h0c2.72483-2.45233,4.87739-5.7221,6.45781-9.80932,1.55316-4.08722,2.32968-8.44691,2.32971-13.07909h0c-.00003-4.49594-.81743-8.62404-2.45232-12.38427-1.63486-3.73299-3.81474-6.75752-6.53954-9.07362h0c-2.31612-1.90737-5.00004-3.26979-8.05182-4.08722-3.07904-.81745-6.79842-1.22616-11.15811-1.22616h-26.36253Zm105.45016,124.45573l17.1663-4.29158V16.72796l-17.1663-4.29157V2.62706h41.68959l73.77427,111.37664V16.72796l-17.1663-4.29157V2.62706h49.65965V12.43638l-17.1663,4.29157V149.76684h-17.37067l-80.9269-120.77724v106.67634l17.16636,4.29158v9.80932h-49.65972v-9.80932Zm271.59551,12.05729h0c-7.90189,0-14.95916-1.19892-21.17175-3.59675-6.18533-2.37059-11.45788-5.87197-15.81751-10.50415h0l-2.24798,11.85293h-13.48783v-47.41171h14.50963c.81749,13.21533,4.11447,22.75217,9.89106,28.61052,5.8039,5.85834,14.15545,8.78751,25.05466,8.78751h0c9.12807,0,16.07639-1.812,20.84477-5.436,4.76844-3.59675,7.15269-8.93738,7.15263-16.02189h0c.00006-5.85835-1.4714-10.69488-4.4142-14.50962-2.91548-3.81474-7.13891-7.22075-12.67033-10.21804-5.50411-2.99729-12.07093-5.99459-19.70041-8.99188h0c-8.44691-3.54226-15.66764-7.08451-21.66226-10.62676s-10.55862-7.83384-13.69214-12.87474c-3.13352-5.0409-4.70034-11.51233-4.70034-19.41428h0c0-13.07909,4.0463-23.22902,12.13904-30.44976,8.11992-7.22075,18.992-10.83111,32.61603-10.83111h0c13.48776,0,24.45513,3.81474,32.90204,11.4442h0l1.63492-9.19624h13.48783V50.03877h-13.6922c0-12.94285-2.42504-22.45244-7.27524-28.52877-4.82295-6.04907-12.41158-9.07362-22.76582-9.07362h0c-17.57504,0-26.36247,8.10631-26.36253,24.31893h0c.00006,4.63217,.88553,8.37879,2.65673,11.23984,1.77113,2.86105,4.79563,5.51774,9.07363,7.97007,4.30512,2.45233,10.40876,5.38151,18.31071,8.78752h0c11.30795,4.90465,20.39517,9.60496,27.26173,14.10089,6.89381,4.49594,11.8665,9.33248,14.91831,14.50962,3.07901,5.17714,4.61857,11.30797,4.61857,18.39247h0c0,8.58315-2.04361,15.87202-6.13082,21.86661-4.08722,5.99458-9.67309,10.55864-16.75761,13.69217-7.08452,3.13353-15.25896,4.7003-24.5233,4.7003Zm204.52428-77.45275h0c0,11.71669-1.77119,22.77942-5.31333,33.1882-3.54226,10.43602-8.58318,19.19629-15.12269,26.2808h0c-5.72214,5.99458-12.56138,10.44965-20.51784,13.3652-7.98366,2.9428-17.28891,4.41419-27.91569,4.41419h0c-10.62672,0-19.95917-1.43053-27.99739-4.29158-8.03823-2.86105-14.71407-7.15263-20.0274-12.87473h0c-6.13082-6.40331-10.92652-14.55049-14.38696-24.44155-3.48775-9.86381-5.23169-20.65407-5.23169-32.37075h0c0-11.85293,1.81204-22.99741,5.43601-33.43343,3.59677-10.40878,8.59677-19.08731,15.00008-26.03557h0c5.72214-6.13082,12.43877-10.62676,20.15001-13.48781,7.68392-2.86104,16.90741-4.29157,27.67047-4.29157h0c10.49046,0,19.7276,1.38965,27.71132,4.16896,7.95646,2.80655,14.86387,7.139,20.72215,12.99735h0c6.53957,6.67579,11.48507,15.0137,14.83662,25.01376,3.32417,10.0273,4.98635,20.62682,4.98635,31.79855Zm-110.9679-.81745h0c0,11.17173,.9537,21.04917,2.8611,29.63232,1.9074,8.58316,4.63223,15.59955,8.17443,21.04917h0c3.40599,5.0409,7.73843,8.81476,12.99732,11.32159,5.23169,2.53407,11.66219,3.80111,19.29167,3.80111h0c13.89657,0,24.18272-4.49594,30.8585-13.48781h0c3.67847-4.90466,6.47141-11.4442,8.37881-19.61864s2.86104-17.84751,2.86104-29.01924h0c0-11.17172-.98089-20.95379-2.9428-29.34621-1.9891-8.36517-4.75478-15.13633-8.29704-20.31347h0c-3.54226-5.17714-7.99731-8.99187-13.36521-11.44421-5.39516-2.45232-11.7031-3.67849-18.92383-3.67849h0c-6.94826,0-12.94275,1.15804-17.98373,3.47413-5.04085,2.31609-9.2644,5.65399-12.6704,10.01368h0c-7.49321,9.94556-11.23984,25.81758-11.23984,47.61607Zm190.05556-61.30824l-21.25345,4.29157v119.75543h53.54243l6.94832-35.35442h13.28345v48.63787h-115.46386v-9.80932l19.20997-4.29158V16.72796l-19.20997-4.29157V2.62706h62.94311V12.43638Z"/>
      </g>
      <g>
        <path class="cls-1" d="M203.93414,98.29267h-7.65722c-2.06458,0-3.73341,1.66883-3.73341,3.73341s1.66883,3.73341,3.73341,3.73341h7.65722c2.06458,0,3.73341-1.66883,3.73341-3.73341s-1.66883-3.73341-3.73341-3.73341Z"/>
        <path class="cls-1" d="M237.01964,98.61375h-7.65724c-2.06458,0-3.73341,1.66883-3.73341,3.73341s1.66883,3.73341,3.73341,3.73341h7.65724c2.06458,0,3.73341-1.66883,3.73341-3.73341s-1.66886-3.73341-3.73341-3.73341Z"/>
        <path class="cls-1" d="M217.01975,107.00272c-2.06458,0-3.73341,1.66883-3.73341,3.73341v7.65722c0,2.06458,1.66883,3.73341,3.73341,3.73341s3.73341-1.66883,3.73341-3.73341v-7.65722c0-2.06457-1.66884-3.73341-3.73341-3.73341Z"/>
        <path class="cls-1" d="M216.94881,96.23557c2.06458,0,3.73341-1.66883,3.73341-3.73341V49.26552c0-1.55683-.96695-2.9494-2.42298-3.49821L111.64795,5.92434c-.84376-.31734-1.77336-.31734-2.61339,0L2.427,45.77104C.9859,46.31239,.02268,47.67882,.00028,49.21698c-.01867,1.53817,.90349,2.93446,2.32965,3.50941l36.09088,14.63871v57.62521c0,14.92245,37.30052,21.71726,71.95776,21.71726s71.95778-6.79481,71.95778-21.71726v-56.74785l19.20467-7.54522c1.9227-.75042,2.86727-2.91953,2.10937-4.8385-.75042-1.9227-2.91953-2.86726-4.83851-2.10938l-88.45197,34.73566L14.01924,49.40739,110.34125,13.40237l102.87788,38.45413v40.64565c-.00373,2.06458,1.66884,3.73341,3.72968,3.73341Zm-106.60756,0c.46295,0,.92589-.08586,1.36643-.25761l63.16558-24.80852v53.81713c0,4.83851-22.76261,14.25044-64.49095,14.25044s-64.49095-9.41193-64.49095-14.25044v-54.59368l63.04611,25.57013c.44802,.18295,.9259,.27255,1.40377,.27255Z"/>
      </g>
    </g>
  </g>
</svg>